  <svg id="svg-logo" width="auto" height="auto" viewBox="0 0 554.5 531.9">
    <path
      d="M338.6,59.5c-18.4,3.1-36.4,8.3-53.6,15.5c-29.4-10.8-63.2-15.1-97.6-14.7
	c-93.2,1-175.9,38.6-108.1,187c2.6,5.7,5.4,11.3,8.5,16.8c-8.2,17.7-14.8,36-19.6,54.9C44.6,409.1,58.9,498.8,220,472.7
	c30.2-4.9,58.5-15.1,82.5-30.1c1.5,0.7,3,1.3,4.6,1.9c86.1,35.7,176.9,33.7,172.9-129.4c-0.4-17.1-2.6-34.2-6.6-50.8
	c7.5-16.8,13.5-34.3,17.9-52.1C514.4,121.9,499.5,32.3,338.6,59.5z"
      fill="#04d94f"
    />
  </svg>