<svg version="1.1" id="Calque_1" xmlns="http://www.w3.org/2000/svg" x="0" y="0" viewBox="0 0 1111.7 336.6" xml:space="preserve"><style>.st1{fill:#232323;enable-background:new}</style><linearGradient id="SVGID_1_" gradientUnits="userSpaceOnUse" x1="838.034" y1="104.967" x2="1054.326" y2="229.844" gradientTransform="matrix(1 0 0 -1 0 338)"><stop offset="0" stop-color="#0439d9"/><stop offset=".08" stop-color="#083ed9"/><stop offset=".177" stop-color="#144dd9"/><stop offset=".267" stop-color="#2561d9"/><stop offset=".293" stop-color="#2369d0"/><stop offset=".443" stop-color="#1891a2"/><stop offset=".586" stop-color="#0fb07e"/><stop offset=".72" stop-color="#09c764"/><stop offset=".84" stop-color="#05d454"/><stop offset=".935" stop-color="#04d94f"/></linearGradient><path d="M1047.4 175.8C1032 236 997 288.3 934.9 288.3s-112.5-50.4-112.5-112.5S873.6 73.6 934.9 63.3c118.5-20 129.5 46 112.5 112.5z" fill="url(#SVGID_1_)"/><path class="st1" d="M193.6 199.5c0 36.4-29 64.5-65.3 64.5-36.6 0-64.8-27.3-64.8-65V57.2l13.6-3.4v109.9c10.5-17.3 29.3-28.4 52-28.4 36.1 0 64.5 27.8 64.5 64.2zm-13.7 0c0-29-22.4-51.7-51.1-51.7-29 0-51.7 22.7-51.7 52 0 29 22.2 51.7 51.1 51.7s51.7-22.5 51.7-52z"/><path class="st1" d="M296.4 220.3l5.1 12.5C286.4 247.3 268 255 248.1 255c-37.5 0-65-28.1-65-64.2 0-36.4 28.7-64.5 64.8-64.5 29.8 0 53.1 18.7 57.9 49.4L199 207.5c6.5 20.4 25.3 34.9 49.4 34.9 18.2.1 34.1-7.6 48-22.1zm-100-29.5c0 1.7 0 3.1.3 4.8l93.4-27.8c-5.7-17.9-22.4-29.3-42.3-29.3-28.7 0-51.4 23-51.4 52.3z"/><path d="M440.9 164.7h-81.2l-34.1 78.7h-15.3l90-205.9 90.3 205.9H475l-34.1-78.7zm-5.6-13.3l-34.9-80.9-34.9 80.9h69.8z" opacity=".95" fill="#232323"/><path class="st1" d="M619.6 181.5c0 36.4-29 64.5-65.3 64.5-36.6 0-64.8-27.3-64.8-65V39.2l13.6-3.4v109.9c10.5-17.3 29.3-28.4 52-28.4 36.1 0 64.5 27.8 64.5 64.2zm-13.7 0c0-29-22.4-51.7-51.1-51.7-29 0-51.7 22.7-51.7 52 0 29 22.2 51.7 51.1 51.7s51.7-22.5 51.7-52z"/><path class="st1" d="M609.1 181.5c0-36.1 28.7-64.2 65-64.2 36.6 0 65 28.1 65 64.2s-28.4 64.5-65 64.5c-36.4 0-65-28.4-65-64.5zm116.4 0c0-29.3-22.4-51.7-51.4-51.7-28.7 0-51.1 22.4-51.1 51.7 0 29.5 22.4 52 51.1 52 29 0 51.4-22.5 51.4-52zm39.8-49.4v77.8c0 14.8 7.7 23 21 23 5.7 0 12.2-1.7 16.5-3.7V242c-4.3 1.7-10.8 3.4-17.6 3.4-20.4 0-33.2-13.1-33.2-34.6v-78.7h-19l2.6-12.2h16.5V90l13.3-8.8v38.6h37.5V132h-37.6v.1z"/><path d="M911.6 257.2l-3.2-10.7c16.7-9 25.5-21.1 31.1-32l8.1 7.7-17.6-8.4c-11.1-5.3-14.8-13.2-14.8-20.4 0-12.8 10.2-22.5 23.2-22.5 7.4 0 13 1.6 18.6 6.5 3 7.4 3.7 12.1 3.7 19.5-.1 33.4-27 54-49.1 60.3zm3.5-139.9c0-12.5 10-23 22.7-23s22.7 10.4 22.7 23c0 12.3-10 22.3-22.7 22.3s-22.7-10-22.7-22.3z" fill="#fff"/></svg>