<svg xmlns="http://www.w3.org/2000/svg" viewBox="0 0 255.6 257.1"><linearGradient id="a" gradientUnits="userSpaceOnUse" x1="27.758" y1="88.06" x2="244.051" y2="212.938" gradientTransform="matrix(1 0 0 -1 0 275.682)"><stop offset="0" stop-color="#0439d9"/><stop offset=".08" stop-color="#083ed9"/><stop offset=".177" stop-color="#144dd9"/><stop offset=".267" stop-color="#2561d9"/><stop offset=".293" stop-color="#2369d0"/><stop offset=".443" stop-color="#1891a2"/><stop offset=".586" stop-color="#0fb07e"/><stop offset=".72" stop-color="#09c764"/><stop offset=".84" stop-color="#05d454"/><stop offset=".935" stop-color="#04d94f"/></linearGradient><path d="M237.1 130.4c-15.4 60.2-50.4 112.5-112.5 112.5S12.1 192.5 12.1 130.4 63.3 28.2 124.6 17.9c118.5-20 129.5 46 112.5 112.5z" fill="url(#a)"/><path d="M101.3 211.8l-3.2-10.7c16.7-9 25.5-21.1 31.1-32l8.1 7.7-17.6-8.4c-11.1-5.3-14.8-13.2-14.8-20.4 0-12.8 10.2-22.5 23.2-22.5 7.4 0 13 1.6 18.6 6.5 3 7.4 3.7 12.1 3.7 19.5-.1 33.4-27 54-49.1 60.3zm3.5-139.9c0-12.5 10-23 22.7-23s22.7 10.4 22.7 23c0 12.3-10 22.3-22.7 22.3s-22.7-10-22.7-22.3z" fill="#fff"/></svg>