<?xml version="1.0" encoding="utf-8"?>
<!-- Generator: Adobe Illustrator 25.1.0, SVG Export Plug-In . SVG Version: 6.00 Build 0)  -->
<svg version="1.1" id="Calque_1" xmlns="http://www.w3.org/2000/svg" xmlns:xlink="http://www.w3.org/1999/xlink" x="0px" y="0px"
	 viewBox="0 0 512 512" style="enable-background:new 0 0 512 512;" xml:space="preserve">
<style type="text/css">
	.st0{fill:#595959;}
	.st1{fill:#04D94F;stroke:#04D94F;stroke-width:11.9;}
	.st2{fill:#2561D9;stroke:#FFFFFF;stroke-width:15.051;stroke-miterlimit:5.059;}
	.st3{fill:#04D94F;}
</style>
<path class="st0" d="M497.9,420.9c-0.3-0.7,3.4,7.5-52.3-113.1V80.7c0-15.8-12.9-28.7-28.7-28.7H94.1c-15.8,0-28.7,12.9-28.7,28.7
	v227.2l-52,112.3c-3.8,8.3-3.4,20.1,3,29.4C22.1,458,31.7,463,41.8,463h427.3C490.7,463,505.7,441.2,497.9,420.9z M87,71h338v226H87
	V71z M194,441l12.8-51h99.3l12.8,51H194z M479.7,441H339l-16.7-53.5c-2-6.3-7.8-10.5-14.3-10.5H204c-6.6,0-12.4,4.3-14.3,10.5
	L173,441H32.3c-1.6,0-2.6-1.5-2.2-2.8L81.6,327h348.8l51.5,111.2C482.3,439.5,481.3,441,479.7,441z"/>
<g id="g2986" transform="translate(365.56 -67.254)">
	<path id="path2987" class="st1" d="M-108.3,223.6c33.5-0.4,72.6,9,87.3,20.9s-0.5,21.8-34,22.2c-24.7,0.3-53.6-4.8-72.9-12.8
		l46.2-8.7C-81.7,245.2-108.3,223.6-108.3,223.6z"/>
	<path id="path2987-1" class="st1" d="M-125.6,252.6c-21.2-25.9-38.4-62.2-38.3-81.2c0.1-18.9,17.4-13.3,38.6,12.6
		c15.7,19.1,29.7,44.8,35.5,64.9l-35.7-30.6L-125.6,252.6L-125.6,252.6z"/>
	<path id="path2987-1-7" class="st1" d="M-95.3,251.5c-14,30.4-39.1,61.8-56.1,70s-19.5-9.8-5.6-40.2c10.3-22.5,27.2-46.4,42.7-60.4
		l-11.9,45.5L-95.3,251.5z"/>
	<path id="path3025" class="st2" d="M-88.8,243.1c0,13-10.6,23.6-23.6,23.6s-23.6-10.6-23.6-23.6s10.6-23.6,23.6-23.6
		S-88.8,230-88.8,243.1z"/>
	<path id="path3795" class="st3" d="M-124.2,311.8c0,0,14.9-11.4,22.2-27.7l5,63.9l-30.6-0.6L-124.2,311.8L-124.2,311.8z"/>
</g>
</svg>
