<svg version="1.1" id="Calque_1" xmlns="http://www.w3.org/2000/svg" x="0" y="0" viewBox="0 0 512 512" xml:space="preserve"><style>.st0{fill:#04d94f;stroke:#04d94f;stroke-width:11.9;stroke-miterlimit:4}</style><path d="M509.8 427c-.3-.7 3.6 7.8-54.8-118.3V71c0-16.5-13.5-30-30-30H87c-16.5 0-30 13.5-30 30v237.7L2.6 426.2c-4 8.7-3.6 21 3.1 30.8 6 8.8 16 14 26.6 14h447.4c22.6 0 38.3-22.8 30.1-44zM87 71h338v226H87V71zm117.4 370l10.6-34h82l10.6 34H204.4zm275.3 0H339l-16.7-53.5c-2-6.3-7.8-10.5-14.3-10.5H204c-6.6 0-12.4 4.3-14.3 10.5L173 441H32.3c-1.6 0-2.6-1.5-2.2-2.8L81.6 327h348.8l51.5 111.2c.4 1.3-.6 2.8-2.2 2.8z" fill="#595959"/><g id="g2986" transform="translate(365.56 -67.254)"><path id="path2987" class="st0" d="M-108.3 223.6c33.5-.4 72.6 9 87.3 20.9 14.7 11.9-.5 21.8-34 22.2-24.7.3-53.6-4.8-72.9-12.8l46.2-8.7-26.6-21.6z"/><path id="path2987-1" class="st0" d="M-125.6 252.6c-21.2-25.9-38.4-62.2-38.3-81.2.1-18.9 17.4-13.3 38.6 12.6 15.7 19.1 29.7 44.8 35.5 64.9l-35.7-30.6-.1 34.3z"/><path id="path2987-1-7" class="st0" d="M-95.3 251.5c-14 30.4-39.1 61.8-56.1 70-17 8.2-19.5-9.8-5.6-40.2 10.3-22.5 27.2-46.4 42.7-60.4l-11.9 45.5 30.9-14.9z"/><path id="path3025" d="M-88.8 243.1c0 13-10.6 23.6-23.6 23.6s-23.6-10.6-23.6-23.6c0-13 10.6-23.6 23.6-23.6s23.6 10.5 23.6 23.6z" fill="#2561d9" stroke="#fff" stroke-width="15.051" stroke-miterlimit="5.059"/><path id="path3795" d="M-124.2 311.8s14.9-11.4 22.2-27.7l5 63.9-30.6-.6 3.4-35.6z" fill="#04d94f"/></g></svg>